<svg id="Layer_1" data-name="Layer 1" xmlns="http://www.w3.org/2000/svg" viewBox="0 0 454.98 479.37"><path d="M445.27,363.82q-8.86-2.42-14.94,4.86-.4.4-5.06,6.07c-14.69,17.92-36.22,31.19-60,30.26-24.38-.95-44.08-16.73-57.93-35.73Q281.25,333.54,281.26,277q0-28.28,11.3-44.24t27.08-15.95q11.3,0,20.6,8.49a80.13,80.13,0,0,1,15.95,20.39q6.68,11.93,14.14,23.84a72.18,72.18,0,0,0,19.39,20.41A45.85,45.85,0,0,0,417,298.38q17.79,0,27.89-9.89T455,262.43q0-33.54-35.35-55.55t-83.83-22q-60.6,0-97.57,40.59c-11.68,12.84-22,27.21-37,36.62-34.69,21.77-73.07,4.3-95.17-26Q80,200.33,80,143.75q0-28.26,11.3-44.23t27.08-16q11.3,0,20.6,8.49a80.3,80.3,0,0,1,15.95,20.39q6.68,11.94,14.14,23.85a71.92,71.92,0,0,0,19.4,20.4,45.82,45.82,0,0,0,27.27,8.48q17.78,0,27.88-9.9t10.1-26.05q0-33.54-35.35-55.55t-83.83-22q-60.6,0-97.57,40.59T0,194.66q0,40,17,74.33a140.37,140.37,0,0,0,49.28,55.75Q98.56,346.16,139,346.16c24.79,0,45.54-4.6,62.42-13.6a164.62,164.62,0,0,0,16.84,69.64A140.56,140.56,0,0,0,267.52,458q32.31,21.42,72.72,21.41,55.74,0,84.83-30.3t29.09-72.72Q454.16,366.27,445.27,363.82Z"/><path d="M406.23,25.65a17.9,17.9,0,0,0-12.5,2.5c-1.76,1-5.1,3.38-13.75,12Q375,45,368.66,50.29c1.47-8.89,2.91-16,4.31-21.19,2.51-9.45,2.31-16.51-.65-21.57A14.79,14.79,0,0,0,361.4.22C353.77-.92,346.45,2.38,343.29,9a19.29,19.29,0,0,0-1.78,8.65c.12,3.6,1.27,9.27,3.61,17.86a155.62,155.62,0,0,1,3.27,15.26q-5.94-4.86-11-9.85c-9.15-8.94-12.74-11.4-14.7-12.51a19.64,19.64,0,0,0-8.51-2.56c-7.19-.31-13.39,4.3-16.07,11.67a14.79,14.79,0,0,0,.9,12.92,18.21,18.21,0,0,0,8,7.32,72.79,72.79,0,0,0,10.71,3.95q5.18,1.47,14.63,4.46c2,.65,4.09,1.33,6.13,2.06a132.59,132.59,0,0,1-14.72,4.91c-8.6,2.27-14.1,4.2-17.3,6.08a17.72,17.72,0,0,0-8.3,9.8c-1,3-1.47,7.7,1.78,13.28,2.9,5,6.66,7.77,11.15,8.38a18.71,18.71,0,0,0,12.16-2.72c1.78-1,5.19-3.48,14.29-12.65,3.36-3.38,7-6.74,10.95-10q-.57,3.31-1.26,6.45c-1.36,6.18-2.48,11.1-3.39,14.89A79.63,79.63,0,0,0,342.05,118a17.93,17.93,0,0,0,2.41,10.3,14.77,14.77,0,0,0,10.9,7.3c7.92,1.23,15.69-2.83,18.25-8.85a23.4,23.4,0,0,0,1.66-8.24c.06-3.38-.9-8.66-3-16.63-1.16-4.34-2.34-9.86-3.51-16.51a134.7,134.7,0,0,1,12.46,11c5.18,5.37,9.36,9,12.85,11.05a18.9,18.9,0,0,0,8.44,2.58,15.08,15.08,0,0,0,8.49-2,17.64,17.64,0,0,0,7.71-9.61,14.76,14.76,0,0,0-.87-12.93A18.37,18.37,0,0,0,409.66,78a74.89,74.89,0,0,0-10.47-3.87l-14.31-4.27c-2-.59-4.13-1.3-6.39-2.1,5.15-2,10.1-3.59,14.79-4.92,12.1-3.44,15.57-5,17.24-6a18.45,18.45,0,0,0,8.34-9.38c1.62-4.26,1-8.86-1.83-13.7C413.68,28.08,409.31,26.21,406.23,25.65Z"/></svg>