<?xml version="1.0" encoding="utf-8"?>
<svg viewBox="0 0 500 500" xmlns="http://www.w3.org/2000/svg" fill="currentColor">
  <g transform="matrix(0.988709, 0, 0, 0.988689, -96.043175, -26.833031)">
    <path d="m349.99 532.86c139.43 0 252.86-113.43 252.86-252.86 0.003907-139.42-113.43-252.86-252.86-252.86-139.42 0-252.85 113.43-252.85 252.86s113.43 252.86 252.85 252.86zm-141.44-77.117c7.2344-33.926 65.902-90.777 141.44-90.777 75.535 0 134.22 56.855 141.44 90.777-38.727 31.23-87.926 49.988-141.44 49.988-53.512 0-102.71-18.758-141.44-49.988zm141.44-401.46c124.47 0 225.74 101.26 225.74 225.73 0 60.168-23.707 114.86-62.219 155.38-14.242-34.625-53.387-69.688-102.16-86.789 37.125-21.34 62.203-61.371 62.203-107.17 0-68.133-55.43-123.56-123.57-123.56-68.133 0-123.55 55.43-123.55 123.56 0 45.801 25.078 85.832 62.195 107.17-48.766 17.102-87.922 52.164-102.16 86.789-38.5-40.516-62.211-95.207-62.211-155.38 0-124.47 101.27-225.73 225.73-225.73zm0 283.57c-53.176 0-96.426-43.254-96.426-96.426 0-53.176 43.254-96.438 96.426-96.438 53.176 0 96.438 43.262 96.438 96.438 0.003906 53.168-43.254 96.426-96.438 96.426z" />
  </g>
</svg>